<?xml version="1.0" standalone="no"?>
<!DOCTYPE svg PUBLIC "-//W3C//DTD SVG 20010904//EN"
 "http://www.w3.org/TR/2001/REC-SVG-20010904/DTD/svg10.dtd">
<svg version="1.0" xmlns="http://www.w3.org/2000/svg"
 width="260.000000pt" height="260.000000pt" viewBox="0 0 260.000000 260.000000"
 preserveAspectRatio="xMidYMid meet">
<metadata>
Created by potrace 1.14, written by Peter Selinger 2001-2017
</metadata>
<g transform="translate(0.000000,260.000000) scale(0.100000,-0.100000)"
fill="#000000" stroke="none">
<path d="M1275 2508 c-33 -113 -43 -123 -153 -158 -45 -14 -44 -27 4 -36 51
-9 91 -24 107 -42 8 -9 26 -50 39 -91 l24 -75 18 60 c39 124 47 131 179 151
48 7 40 15 -44 42 -36 12 -75 32 -86 44 -11 12 -30 55 -43 95 -12 39 -23 72
-24 72 -1 0 -11 -28 -21 -62z"/>
<path d="M565 1921 c-78 -23 -114 -42 -162 -88 -56 -55 -85 -121 -91 -209 -8
-122 19 -201 97 -286 51 -56 101 -93 315 -234 187 -122 245 -195 251 -311 6
-118 -35 -198 -126 -247 -46 -26 -64 -30 -139 -30 -74 0 -93 3 -143 27 -62 31
-115 86 -148 154 -25 52 -59 175 -59 218 0 37 -10 52 -32 52 -16 0 -18 -12
-19 -101 0 -56 -2 -163 -4 -239 -1 -75 1 -139 5 -142 18 -11 38 8 44 40 11 57
24 59 117 14 46 -22 106 -47 134 -54 48 -13 187 -13 248 0 211 44 336 229 296
439 -27 143 -115 231 -429 426 -169 106 -223 157 -246 236 -18 64 -14 146 11
194 24 46 92 97 146 110 64 16 157 7 209 -20 94 -48 164 -162 185 -300 4 -25
9 -48 11 -51 4 -8 30 -6 38 2 2 2 6 94 7 203 4 185 2 199 -14 202 -10 1 -21
-5 -24 -14 -26 -85 -43 -90 -121 -42 -80 49 -120 61 -211 65 -60 2 -104 -2
-146 -14z"/>
<path d="M1342 1895 c2 -15 12 -20 38 -22 19 -2 46 -8 60 -13 56 -23 55 -6 57
-636 2 -407 0 -591 -8 -613 -14 -40 -40 -57 -101 -66 -37 -5 -48 -10 -48 -24
0 -17 29 -18 518 -17 l518 1 -5 45 c-2 25 -5 118 -5 207 -1 162 -1 163 -23
163 -17 0 -23 -6 -24 -22 0 -13 -2 -34 -5 -48 -2 -14 -6 -36 -8 -50 -16 -105
-64 -188 -127 -218 -60 -29 -101 -34 -271 -35 -162 0 -188 8 -210 61 -15 38
-15 1166 0 1204 13 32 53 55 107 60 30 3 41 9 43 23 3 19 -5 20 -253 20 -249
0 -256 -1 -253 -20z"/>
</g>
</svg>
