<svg width="200" height="200" viewBox="0 0 200 200" fill="none" xmlns="http://www.w3.org/2000/svg">
<rect width="200" height="200" fill="url(#paint0_linear_135_42)"/>
<g filter="url(#filter0_d_135_42)">
<path d="M71.7832 73.29C74.7832 73.29 77.0632 73.65 78.6232 74.37C80.1832 75.03 81.5632 75.78 82.7632 76.62C83.4832 77.04 84.0532 77.37 84.4732 77.61C84.9532 77.79 85.4032 77.88 85.8232 77.88C86.4232 77.88 86.8432 77.55 87.0832 76.89C87.3832 76.23 87.6232 75.24 87.8032 73.92H89.8732C89.8132 74.94 89.7232 76.17 89.6032 77.61C89.5432 78.99 89.4832 80.85 89.4232 83.19C89.4232 85.47 89.4232 88.5 89.4232 92.28H87.3532C87.1732 89.4 86.5432 86.64 85.4632 84C84.3832 81.36 82.7932 79.2 80.6932 77.52C78.6532 75.84 75.9532 75 72.5932 75C69.4132 75 66.7732 75.96 64.6732 77.88C62.6332 79.8 61.6132 82.32 61.6132 85.44C61.6132 88.14 62.3032 90.42 63.6832 92.28C65.0632 94.08 66.8932 95.73 69.1732 97.23C71.5132 98.67 74.0332 100.23 76.7332 101.91C79.8532 103.83 82.6132 105.75 85.0132 107.67C87.4732 109.53 89.3932 111.6 90.7732 113.88C92.2132 116.16 92.9332 118.92 92.9332 122.16C92.9332 126 92.0632 129.18 90.3232 131.7C88.5832 134.22 86.2732 136.11 83.3932 137.37C80.5132 138.63 77.3332 139.26 73.8532 139.26C70.6732 139.26 68.1532 138.9 66.2932 138.18C64.4332 137.46 62.8432 136.71 61.5232 135.93C60.2032 135.09 59.1832 134.67 58.4632 134.67C57.8632 134.67 57.4132 135 57.1132 135.66C56.8732 136.32 56.6632 137.31 56.4832 138.63H54.4132C54.5332 137.37 54.5932 135.9 54.5932 134.22C54.6532 132.48 54.6832 130.23 54.6832 127.47C54.7432 124.71 54.7732 121.23 54.7732 117.03H56.8432C57.0832 120.63 57.7432 123.99 58.8232 127.11C59.9632 130.23 61.6732 132.75 63.9532 134.67C66.2932 136.53 69.3832 137.46 73.2232 137.46C75.2032 137.46 77.0632 137.07 78.8032 136.29C80.6032 135.45 82.0732 134.16 83.2132 132.42C84.3532 130.62 84.9232 128.31 84.9232 125.49C84.9232 123.03 84.3232 120.9 83.1232 119.1C81.9832 117.24 80.3632 115.53 78.2632 113.97C76.1632 112.35 73.7032 110.7 70.8832 109.02C68.0632 107.28 65.4232 105.51 62.9632 103.71C60.5032 101.91 58.5232 99.84 57.0232 97.5C55.5832 95.1 54.8632 92.22 54.8632 88.86C54.8632 85.32 55.6432 82.41 57.2032 80.13C58.8232 77.79 60.9232 76.08 63.5032 75C66.0832 73.86 68.8432 73.29 71.7832 73.29ZM124.077 74.28V76.08C122.037 76.14 120.477 76.38 119.397 76.8C118.377 77.16 117.687 77.88 117.327 78.96C116.967 79.98 116.787 81.6 116.787 83.82V128.46C116.787 130.62 116.967 132.24 117.327 133.32C117.687 134.4 118.377 135.12 119.397 135.48C120.477 135.78 122.037 135.93 124.077 135.93H130.647C133.467 135.93 135.747 135.63 137.487 135.03C139.287 134.43 140.697 133.5 141.717 132.24C142.797 130.92 143.607 129.18 144.147 127.02C144.687 124.86 145.107 122.22 145.407 119.1H147.477C147.297 120.96 147.207 123.42 147.207 126.48C147.207 127.62 147.237 129.27 147.297 131.43C147.417 133.53 147.597 135.72 147.837 138C144.777 137.88 141.327 137.82 137.487 137.82C133.647 137.76 130.227 137.73 127.227 137.73C125.907 137.73 124.197 137.73 122.097 137.73C120.057 137.73 117.837 137.76 115.437 137.82C113.037 137.82 110.607 137.85 108.147 137.91C105.687 137.91 103.347 137.94 101.127 138V136.2C103.167 136.08 104.697 135.84 105.717 135.48C106.797 135.12 107.517 134.4 107.877 133.32C108.237 132.24 108.417 130.62 108.417 128.46V83.82C108.417 81.6 108.237 79.98 107.877 78.96C107.517 77.88 106.797 77.16 105.717 76.8C104.697 76.38 103.167 76.14 101.127 76.08V74.28C102.387 74.34 104.037 74.4 106.077 74.46C108.117 74.52 110.307 74.55 112.647 74.55C114.747 74.55 116.817 74.52 118.857 74.46C120.957 74.4 122.697 74.34 124.077 74.28Z" fill="white"/>
</g>
<g filter="url(#filter1_d_135_42)">
<path d="M92.8181 41.5364L92 41.8261C95.4262 42.6347 98.1725 45.1893 99.2266 48.5481L99.3684 49L99.4859 48.6257C100.553 45.2241 103.351 42.6481 106.829 41.8646L107 41.8261L106.028 41.4975C103.001 40.4745 100.645 38.0667 99.688 35.0182L99.3684 34L99.0219 35.1042C98.0803 38.1044 95.7823 40.487 92.8181 41.5364Z" stroke="white" stroke-width="1.5" shape-rendering="crispEdges"/>
</g>
<defs>
<filter id="filter0_d_135_42" x="50.4131" y="69.29" width="101.424" height="73.97" filterUnits="userSpaceOnUse" color-interpolation-filters="sRGB">
<feFlood flood-opacity="0" result="BackgroundImageFix"/>
<feColorMatrix in="SourceAlpha" type="matrix" values="0 0 0 0 0 0 0 0 0 0 0 0 0 0 0 0 0 0 127 0" result="hardAlpha"/>
<feOffset/>
<feGaussianBlur stdDeviation="2"/>
<feComposite in2="hardAlpha" operator="out"/>
<feColorMatrix type="matrix" values="0 0 0 0 1 0 0 0 0 1 0 0 0 0 1 0 0 0 1 0"/>
<feBlend mode="normal" in2="BackgroundImageFix" result="effect1_dropShadow_135_42"/>
<feBlend mode="normal" in="SourceGraphic" in2="effect1_dropShadow_135_42" result="shape"/>
</filter>
<filter id="filter1_d_135_42" x="84.3457" y="26.4953" width="30.4248" height="30.0094" filterUnits="userSpaceOnUse" color-interpolation-filters="sRGB">
<feFlood flood-opacity="0" result="BackgroundImageFix"/>
<feColorMatrix in="SourceAlpha" type="matrix" values="0 0 0 0 0 0 0 0 0 0 0 0 0 0 0 0 0 0 127 0" result="hardAlpha"/>
<feOffset/>
<feGaussianBlur stdDeviation="2.5"/>
<feComposite in2="hardAlpha" operator="out"/>
<feColorMatrix type="matrix" values="0 0 0 0 1 0 0 0 0 1 0 0 0 0 1 0 0 0 1 0"/>
<feBlend mode="normal" in2="BackgroundImageFix" result="effect1_dropShadow_135_42"/>
<feBlend mode="normal" in="SourceGraphic" in2="effect1_dropShadow_135_42" result="shape"/>
</filter>
<linearGradient id="paint0_linear_135_42" x1="0" y1="0" x2="200" y2="200" gradientUnits="userSpaceOnUse">
<stop stop-color="#715D6A"/>
<stop offset="1" stop-color="#618066"/>
</linearGradient>
</defs>
</svg>
